Coordinates
version=1
nRows=5
nColumns=63
inDegrees=yes

Units are S.I. units (second, meters, Newtons, ...)
If the header above contains a line with 'inDegrees', this indicates whether rotational values are in degrees (yes) or radians (no).

endheader
time	pelvis_tilt	pelvis_list	pelvis_rotation	pelvis_tx	pelvis_ty	pelvis_tz	hip_flexion_r	hip_adduction_r	hip_rotation_r	knee_angle_r	knee_angle_r_beta	ankle_angle_r	subtalar_angle_r	mtp_angle_r	hip_flexion_l	hip_adduction_l	hip_rotation_l	knee_angle_l	knee_angle_l_beta	ankle_angle_l	subtalar_angle_l	mtp_angle_l	L5_S1_Flex_Ext	L5_S1_Lat_Bending	L5_S1_axial_rotation	L4_L5_Flex_Ext	L4_L5_Lat_Bending	L4_L5_axial_rotation	L3_L4_Flex_Ext	L3_L4_Lat_Bending	L3_L4_axial_rotation	L2_L3_Flex_Ext	L2_L3_Lat_Bending	L2_L3_axial_rotation	L1_L2_Flex_Ext	L1_L2_Lat_Bending	L1_L2_axial_rotation	L1_T12_Flex_Ext	L1_T12_Lat_Bending	L1_T12_axial_rotation	Abs_r3	Abs_r2	Abs_r1	Abs_t1	Abs_t2	neck_flexion	neck_bending	neck_rotation	arm_flex_r	arm_add_r	arm_rot_r	elbow_flex_r	pro_sup_r	wrist_flex_r	wrist_dev_r	arm_flex_l	arm_add_l	arm_rot_l	elbow_flex_l	pro_sup_l	wrist_flex_l	wrist_dev_l
      0.00000000	      4.82019499	     -2.51297886	     95.15686169	      0.11284351	      0.79316190	      0.85059743	     11.62637403	     -0.07971868	     -7.03051132	     14.29013542	      0.24940991	     28.49740494	     11.51290126	      0.00000000	     11.34058882	     -0.34994708	      5.86076863	     11.50264258	      0.20075899	     28.13634485	      5.26659118	      0.00000000	      0.21287862	      0.24771315	      0.18362350	      0.39533688	      0.32945848	      0.19509997	      0.34973828	      0.60228974	      0.19509997	      0.24329897	      0.60228974	      0.16067056	      0.19767908	      0.50513665	      0.14919409	      0.12163884	      0.38370766	      0.13771763	      1.52057068	      2.80218065	      1.02125883	      0.00000000	      0.00000000	     19.59170700	      2.62432707	      5.61454788	     13.27728788	    -15.84163794	     46.33442911	     65.88195916	     64.43852116	      5.84580430	     21.46824549	     26.36787547	    -13.71571608	     70.66779440	     61.26702572	     76.66285844	      4.63245038	     19.72776344
      0.01694915	      5.17685790	     -2.67943338	     94.70570080	      0.11431630	      0.79370019	      0.85241207	     12.37276934	      0.50344051	     -5.57440761	     14.43955983	      0.25201786	     28.36984018	     10.17585199	      0.00000000	     11.69547973	     -0.75721991	      6.42032349	     11.46295220	      0.20006626	     28.44026274	      4.93936242	      0.00000000	      0.21023814	      0.28167775	      0.24459829	      0.39043325	      0.37463140	      0.25988568	      0.34540024	      0.68487127	      0.25988568	      0.24028117	      0.68487127	      0.21402350	      0.19522714	      0.57439726	      0.19873611	      0.12013007	      0.43631883	      0.18344872	      1.50171001	      3.18639501	      1.36038231	      0.00000000	      0.00000000	     20.71975442	      2.89974291	      5.49909522	     15.79445740	    -16.66266956	     51.84535170	     64.69128598	     58.30085844	      4.06226400	     20.75597407	     26.57586872	    -14.06419792	     72.11938236	     60.21164994	     68.73356019	      5.04056115	     18.63530789
      0.03389831	      5.49859304	     -2.89201519	     94.30808070	      0.11571728	      0.79393386	      0.85423608	     13.03642210	      1.04702179	     -4.28917402	     14.45517800	      0.25229045	     28.19850522	      9.11454586	      0.00000000	     12.09625472	     -1.20595529	      6.11624256	     11.50498917	      0.20079994	     28.57602210	      5.08571721	      0.00000000	      0.21236627	      0.30765170	      0.30252418	      0.39438541	      0.40917676	      0.32143195	      0.34889655	      0.74802434	      0.32143195	      0.24271341	      0.74802434	      0.26470866	      0.19720332	      0.62736334	      0.24580090	      0.12134609	      0.47655248	      0.22689314	      1.51691105	      3.48021755	      1.68254875	      0.00000000	      0.00000000	     21.76918767	      3.22883260	      5.18731139	     17.96867801	    -17.17180321	     56.27522680	     63.88648231	     54.36468078	      3.07569346	     19.46262272	     26.63791159	    -14.29866946	     73.27237656	     59.35847729	     58.15617339	      5.26224504	     18.63070262
      0.05084746	      5.77838246	     -3.09841625	     94.01863089	      0.11660795	      0.79389500	      0.85592996	     13.56077245	      1.49285816	     -3.27552659	     14.36215375	      0.25066687	     28.15001973	      8.45001861	      0.00000000	     12.46258361	     -1.61443290	      5.45377690	     11.56404496	      0.20183066	     28.78067464	      5.31431594	      0.00000000	      0.21551518	      0.32985965	      0.34598563	      0.40023324	      0.43871333	      0.36760973	      0.35406989	      0.80202074	      0.36760973	      0.24631230	      0.80202074	      0.30273742	      0.20012740	      0.67264979	      0.28111332	      0.12314537	      0.51095259	      0.25948922	      1.53940339	      3.73143828	      1.92426825	      0.00000000	      0.00000000	     22.75862591	      3.83934256	      4.79655464	     19.76279881	    -17.50909985	     59.62759198	     63.35443706	     52.23352203	      2.75721307	     17.93583251	     26.48860118	    -14.38897858	     73.95155804	     58.80643795	     46.82681722	      4.65501329	     19.47781744
      0.06779661	      6.01251444	     -3.30841773	     93.79514074	      0.11735023	      0.79377135	      0.85748175	     13.97514051	      1.85420664	     -2.62585845	     14.17264744	      0.24735936	     28.02939515	      8.12514116	      0.00000000	     12.76696858	     -1.97351824	      4.70893972	     11.55202800	      0.20162092	     28.78943261	      5.39534675	      0.00000000	      0.22132804	      0.34666984	      0.37716484	      0.41102830	      0.46107089	      0.40073765	      0.36361984	      0.84289305	      0.40073765	      0.25295582	      0.84289305	      0.33001924	      0.20552522	      0.70692914	      0.30644643	      0.12646684	      0.53699158	      0.28287363	      1.58092405	      3.92159856	      2.09767770	      0.00000000	      0.00000000	     23.61611065	      4.43795906	      4.33697980	     21.11238184	    -17.60698386	     61.84041752	     62.86353794	     51.92084056	      2.87863285	     16.20761146	     26.05697037	    -14.44458940	     73.79027755	     58.60353985	     36.85377547	      3.09568598	     20.67610757
